<svg width="261" height="48" viewBox="0 0 261 48" fill="none" xmlns="http://www.w3.org/2000/svg">
<path d="M22.004 0.0376089C20.494 0.165703 18.8786 0.594818 17.5529 1.22248C17.1929 1.39541 16.4906 1.82452 15.9989 2.18318L15.1034 2.83006L14.287 2.66994C13.5583 2.52904 13.3037 2.50982 11.8024 2.50982C10.2748 2.50982 10.0641 2.52263 9.28274 2.67635C7.07034 3.11827 5.07743 4.07257 3.72541 5.35351C2.77724 6.25017 2.04856 7.46066 1.78518 8.57507C1.58325 9.40128 1.65349 10.9384 1.92565 11.6942C3.02307 14.7428 6.63138 17.0037 10.8103 17.2534L11.5303 17.2983L12.5223 20.9746C13.0754 22.9985 13.5319 24.6637 13.5407 24.6765C13.5583 24.6829 13.9358 24.574 14.3923 24.4331C15.9375 23.9464 18.3694 23.5172 20.5379 23.3443C21.9689 23.229 24.8924 23.2482 26.2883 23.3763C28.3427 23.5685 30.6078 24.004 32.03 24.4779C32.39 24.5996 32.7148 24.6765 32.7499 24.6509C32.7763 24.6188 33.2328 23.0113 33.7508 21.077C34.2688 19.1364 34.7253 17.4968 34.7692 17.42C34.8219 17.3047 34.9272 17.2791 35.5681 17.247C37.6576 17.1253 39.8173 16.408 41.4503 15.2872C42.4072 14.6275 42.9691 14.0831 43.5398 13.2889C44.4001 12.0784 44.725 10.9832 44.6547 9.61264C44.6284 9.1515 44.5494 8.57507 44.4704 8.3317C43.9173 6.49995 42.4423 4.86675 40.3704 3.79717C39.5539 3.37446 38.0966 2.8813 37.0694 2.68275C36.2792 2.52904 36.0685 2.50982 34.5409 2.50982C33.0133 2.50982 32.8026 2.52263 32.0388 2.67635L31.2048 2.84287L30.6078 2.36892C29.5104 1.50429 27.8423 0.716507 26.341 0.364249C25.0856 0.0632277 23.3034 -0.071271 22.004 0.0376089ZM24.5851 1.15843C25.9811 1.33136 27.3594 1.76688 28.4217 2.36892C29.0538 2.72118 29.9844 3.4385 30.362 3.86121L30.6517 4.18785L31.117 4.03414C31.3804 3.94448 31.9774 3.80357 32.4514 3.7075C33.6191 3.48334 35.2959 3.47053 36.4548 3.67548C38.079 3.97009 39.3783 4.49528 40.5899 5.3471C43.3027 7.26851 43.9963 10.1955 42.3106 12.6869C40.9498 14.7044 38.2282 16.043 35.1555 16.2159L34.4531 16.2543L33.742 15.9341C32.2144 15.2424 30.1337 14.5827 28.4305 14.256C26.7449 13.9358 25.7089 13.8461 23.6545 13.8461C21.6353 13.8461 20.3798 13.9486 18.9751 14.224C18.0972 14.3969 17.7373 14.5058 17.5529 14.6723C17.4475 14.7684 17.4475 14.794 17.5968 14.8709C17.7285 14.9413 17.9392 14.9542 18.5976 14.9157C19.0629 14.8837 20.5466 14.8645 21.8987 14.8645C24.032 14.8709 24.5061 14.8901 25.4894 15.0118C26.6571 15.1591 27.5701 15.3128 28.6588 15.5498C30.2566 15.8956 33.1801 16.8307 33.1801 16.9973C33.1801 17.0741 31.872 22.4284 31.7228 22.9728L31.6789 23.1458L31.2662 23.0305C31.038 22.9664 30.362 22.8255 29.7562 22.7167C25.1821 21.884 19.3614 21.9801 15.1561 22.9472C14.7698 23.0305 14.445 23.0945 14.4274 23.0753C14.4099 23.0625 13.9972 21.583 13.5144 19.7897C13.0315 17.9964 12.6189 16.4721 12.5926 16.3952C12.5574 16.2671 12.4784 16.2607 11.4776 16.2223C9.54612 16.1518 7.84293 15.6971 6.40311 14.8453C4.84039 13.9358 3.86588 12.815 3.31278 11.3227C3.10208 10.7271 3.0494 9.31802 3.22499 8.71598C3.83077 6.68569 5.5164 5.0653 7.9395 4.19426C9.28274 3.71391 10.2924 3.54098 11.8024 3.54098C12.8384 3.54098 13.1632 3.5666 13.8656 3.7075C14.3221 3.79717 14.9191 3.93807 15.1825 4.02133L15.6653 4.17504L16.0692 3.75233C17.6495 2.11273 20.3272 1.08157 23.0488 1.06877C23.4877 1.06236 24.1813 1.10719 24.5851 1.15843Z" fill="black"/>
<path d="M45.1731 4.99488C49.0975 9.61267 46.7885 15.5947 40.1337 18.0733C39.3612 18.3615 37.7897 18.765 37.1488 18.8418C36.7976 18.8803 36.7888 18.8931 36.6922 19.2133C36.6483 19.3926 36.1304 21.3141 35.5421 23.4788C34.9627 25.6436 34.4711 27.4305 34.4447 27.4434C34.4272 27.4562 34.234 27.3473 34.0145 27.2064C32.6011 26.2457 29.9497 25.5027 26.8155 25.1633C25.4898 25.0224 21.3372 25.0032 19.9237 25.1313C17.3513 25.3682 15.016 25.8742 13.3919 26.5531C12.3208 27.0014 12.3647 26.9566 12.5051 27.4818C12.5754 27.7252 12.6544 27.9942 12.6807 28.071C12.7246 28.2055 12.7597 28.1927 13.3655 27.8597C14.8053 27.0655 17.2548 26.3866 19.8359 26.0792C22.8999 25.7077 27.1842 25.8038 29.8092 26.2905C32.0216 26.7004 33.8916 27.3473 34.9451 28.0646C35.3578 28.3528 35.3666 28.3528 35.4192 28.2055C35.4456 28.1287 35.9723 26.188 36.5869 23.9016L37.7106 19.7513L38.5271 19.5976C40.4674 19.2389 42.2232 18.56 43.865 17.5353C45.4189 16.5682 46.9114 14.8261 47.5347 13.2569C48.2195 11.5341 48.1405 9.33086 47.3504 7.71048C46.8587 6.71134 45.893 5.46243 45.1292 4.84117C44.857 4.61701 44.857 4.62341 45.1731 4.99488Z" fill="black"/>
<path d="M2.80398 16.3693C4.26135 17.7335 6.56154 18.9056 8.84417 19.4436C9.3007 19.5461 9.67821 19.6357 9.69577 19.6357C9.70455 19.6357 9.66943 19.4756 9.61675 19.2707L9.52018 18.912L8.64225 18.7391C6.47375 18.31 4.83201 17.6503 3.24295 16.5807C2.63717 16.1772 2.55816 16.1324 2.80398 16.3693Z" fill="black"/>
<path d="M4.35834 29.4673C4.30566 29.5634 4.56026 29.6659 10.7497 31.978C13.0938 32.8554 13.2957 32.9451 13.3221 33.1052C13.3659 33.3614 13.1904 33.4895 12.8567 33.4511C12.7163 33.4318 10.5829 32.7914 8.12468 32.0356C4.93778 31.0493 3.62087 30.6714 3.55942 30.7227C3.48918 30.7675 3.51552 30.8123 3.62965 30.8764C3.72623 30.9276 5.70158 31.677 8.01933 32.548C10.3459 33.4126 12.3124 34.1684 12.4002 34.226C12.6812 34.4054 12.488 34.7512 12.1105 34.7512C12.0227 34.7512 9.942 34.13 7.48379 33.3742C5.03435 32.6184 2.96242 31.9908 2.89219 31.978C2.82195 31.9716 2.75172 32.01 2.74294 32.0612C2.72538 32.1317 3.98961 32.6313 7.15017 33.8161C9.74886 34.7832 11.6276 35.5262 11.6803 35.5966C11.8032 35.7567 11.5662 36.0321 11.3028 36.0321C11.2062 36.0321 9.09919 35.4109 6.63219 34.6487C4.16519 33.8866 2.10205 33.2525 2.04937 33.2333C1.9967 33.2205 1.92646 33.2525 1.90012 33.3101C1.85623 33.387 3.00632 33.8353 7.57158 35.4942C12.9709 37.4604 13.3308 37.5821 13.8664 37.6141C14.3931 37.6461 14.4809 37.6269 15.0252 37.422C15.8768 37.0889 16.509 36.9672 17.2025 37.0121C18.0102 37.0633 18.458 37.2042 18.5897 37.454C18.6862 37.6397 18.7038 37.6525 19.0637 37.6141C19.4061 37.5821 19.5993 37.6269 20.8811 38.0496L22.3209 38.5172L21.8029 38.7093C18.7126 39.8493 15.8593 40.6884 11.0921 41.8604C7.20285 42.8211 6.14933 43.1029 5.12214 43.468C3.2697 44.1277 3.0151 44.5248 3.79646 45.5944C4.27055 46.254 4.71829 46.3501 5.9474 46.0491C6.91313 45.8185 8.02811 45.3702 11.7154 43.7498C15.1745 42.2319 16.6933 41.5978 18.4404 40.9574C19.9066 40.4258 23.866 39.1064 24.0153 39.1064C24.1733 39.1064 27.887 40.3425 29.5375 40.9446C31.7587 41.7579 32.6278 42.123 38.3695 44.6657C40.0376 45.4022 41.6969 46.0235 42.3992 46.1772C43.4967 46.4142 43.962 46.2605 44.4712 45.4855C44.9453 44.7682 44.8575 44.3711 44.1376 43.9996C43.2333 43.5192 42.0042 43.1542 38.15 42.1999C34.691 41.348 32.2064 40.682 30.5647 40.1696C28.8791 39.6444 25.8063 38.5812 25.8063 38.53C25.8063 38.5044 26.4823 38.2674 27.3075 37.9984C28.5103 37.6077 28.8439 37.5244 28.9844 37.5757C29.2214 37.6717 29.4936 37.5821 29.5902 37.3771C29.6868 37.1786 30.2574 37.0121 31.0476 36.948C31.5041 36.9096 31.5041 36.9096 32.0308 37.2683C33.3038 38.1265 35.007 38.3442 37.2458 37.9279C40.5205 37.3195 43.163 35.8784 44.3746 34.0403C45.3754 32.516 44.8136 31.0749 42.9436 30.3448C42.0481 29.9989 41.2228 29.8708 39.8093 29.8644C37.9306 29.858 36.4995 30.127 34.6734 30.8251C31.7675 31.9331 30.3452 33.3037 30.4857 34.8281L30.5296 35.3212L30.073 35.6351C29.4585 36.0578 29.1775 36.1602 28.721 36.1154C28.3699 36.0834 28.3435 36.0898 28.2382 36.2819C28.1328 36.4613 27.887 36.5637 26.0697 37.2106L24.0241 37.9343L22.0224 37.2234C20.9162 36.8327 20.0119 36.4805 20.0119 36.442C20.0119 36.3972 19.9417 36.3011 19.8539 36.2243C19.7134 36.0962 19.652 36.0834 19.4237 36.141C19.1954 36.2051 19.0989 36.1859 18.7126 36.0321C17.8785 35.6799 17.3079 35.0394 17.1147 34.2388C16.9918 33.7393 16.7284 33.419 16.2192 33.1628C15.9383 33.0219 4.5866 29.3713 4.42857 29.3713C4.41979 29.3713 4.38468 29.4161 4.35834 29.4673ZM41.214 30.428C41.9866 30.5753 42.7416 30.8636 43.1718 31.1838L43.5493 31.4656L42.9084 31.3055C42.0481 31.0877 40.2746 31.0365 39.1245 31.1902C36.5873 31.536 33.8657 32.8042 32.9702 34.0467C32.3381 34.9177 32.3557 35.8208 32.9966 36.7623C33.3829 37.3195 33.2863 37.3259 32.5664 36.7879C31.6884 36.141 31.1353 34.9562 31.3285 34.1556C31.6182 32.9643 33.1195 31.8243 35.4723 31.0109C36.3503 30.7034 37.5355 30.4344 38.4046 30.332C39.0982 30.2551 40.5556 30.3063 41.214 30.428Z" fill="black"/>
<path d="M46.0422 30.2938C47.0869 31.3314 47.4468 32.4906 47.0606 33.5986C46.7094 34.617 46.0948 35.3791 44.8569 36.3142C43.5664 37.2941 42.109 38.0435 40.2478 38.6968C38.5797 39.286 36.6044 39.6767 35.3138 39.6895H34.7168L35.4191 39.8816L36.1215 40.0674L36.9994 39.9649C39.5806 39.6703 42.8026 38.4854 44.8306 37.0956C46.1826 36.1669 47.0079 35.3023 47.4556 34.3352C47.6663 33.8933 47.7015 33.7203 47.6927 33.0863C47.6927 32.4906 47.6576 32.2729 47.4995 31.9334C47.2361 31.3762 46.7094 30.7357 46.1651 30.3194L45.7261 29.98L46.0422 30.2938Z" fill="black"/>
<path d="M18.1413 32.5413C18.5539 32.932 18.9402 33.438 19.2651 34.008C19.4231 34.2898 19.6426 34.5652 19.7391 34.6165C19.985 34.7318 19.9762 34.6485 19.6513 34.1361C19.3265 33.5981 18.5452 32.7399 18.1589 32.4773L17.8691 32.2852L18.1413 32.5413Z" fill="black"/>
<path d="M0.0296303 34.4366C0.00329226 34.475 -0.00548709 34.5134 0.00329226 34.5199C0.231555 34.6672 10.2225 38.4908 11.4955 38.9135L12.3295 39.1953H13.5147C14.6121 39.2017 14.7614 39.1825 15.6042 38.9903C16.1046 38.8686 16.4997 38.7662 16.4821 38.747C16.4558 38.7341 15.8149 38.7534 15.0423 38.7918C14.2785 38.8302 13.225 38.8494 12.707 38.8366L11.7676 38.8174L9.28306 37.9079C7.15846 37.133 2.02254 35.1603 0.547612 34.5583C0.257893 34.4366 0.073527 34.3918 0.0296303 34.4366Z" fill="black"/>
<path d="M22.4261 41.4438C20.6527 41.7769 18.8617 42.4622 15.5782 44.0698C11.5573 46.0296 9.73115 46.7853 7.81725 47.2657C5.78923 47.7781 4.41087 47.7845 3.1642 47.2913L2.84814 47.1632L3.19054 47.3938C3.82265 47.8165 4.39331 47.9638 5.45561 47.9958C7.94895 48.0663 10.3457 47.2593 16.1928 44.3964C18.8617 43.0898 20.8634 42.2956 22.4612 41.9178C23.6113 41.6424 24.9106 41.5911 25.9466 41.7897C27.7903 42.1355 29.9588 42.9489 34.9718 45.1714C40.134 47.4642 41.2402 47.8549 42.7503 47.9254C43.7423 47.9702 44.4622 47.8741 45.2348 47.5795C46.5517 47.0736 47.2541 46.0616 47.0434 44.9664C46.9556 44.4989 46.4815 43.7879 45.9899 43.3973C45.665 43.1347 45.6475 43.1283 45.823 43.3332C46.4639 44.0954 46.701 44.7679 46.5254 45.4019C46.1742 46.7213 44.673 47.5603 42.6713 47.5603C40.9593 47.5603 39.9672 47.2273 34.7786 44.9216C27.1143 41.5143 25.0687 40.9379 22.4261 41.4438Z" fill="black"/>
<path d="M68.1422 15.1517C68.1422 14.8817 68.0432 14.6657 67.8452 14.5037C67.6472 14.3417 67.4041 14.2156 67.1161 14.1256C66.8281 14.0266 66.5221 13.9591 66.198 13.9231C65.874 13.8871 65.586 13.8601 65.334 13.8421C65.271 13.8421 65.2125 13.8376 65.1585 13.8286C65.1045 13.8106 65.0775 13.7611 65.0775 13.6801C65.0775 13.6261 65.1 13.5811 65.145 13.5451C65.19 13.5091 65.244 13.4821 65.307 13.4641C65.37 13.4371 65.433 13.4236 65.496 13.4236C65.559 13.4146 65.613 13.4101 65.658 13.4101C65.721 13.4101 65.856 13.4146 66.063 13.4236C66.2701 13.4236 66.5266 13.4281 66.8326 13.4371C67.1386 13.4371 67.4761 13.4416 67.8452 13.4506C68.2232 13.4506 68.6147 13.4506 69.0198 13.4506C69.7128 13.4506 70.3068 13.4416 70.8019 13.4236C71.3059 13.3966 71.7604 13.3696 72.1655 13.3426C72.5795 13.3066 72.971 13.2796 73.3401 13.2616C73.7181 13.2346 74.1231 13.2211 74.5552 13.2211C74.7262 13.2211 74.8747 13.2211 75.0007 13.2211C75.1357 13.2211 75.2707 13.2211 75.4057 13.2211C75.5407 13.2211 75.6892 13.2256 75.8512 13.2346C76.0223 13.2346 76.2248 13.2391 76.4588 13.2481C76.7018 13.2571 76.9943 13.2661 77.3364 13.2751C77.6874 13.2841 78.1104 13.2976 78.6054 13.3156C78.7045 13.3246 78.79 13.3606 78.862 13.4236C78.934 13.4866 78.979 13.5676 78.997 13.6666C79.015 14.2876 79.0285 14.8817 79.0375 15.4487C79.0555 16.0068 79.0645 16.6008 79.0645 17.2309C79.0645 17.3749 79.042 17.4469 78.997 17.4469C78.979 17.4469 78.952 17.4424 78.916 17.4334C78.88 17.4244 78.853 17.3974 78.835 17.3524C78.763 17.2084 78.6864 17.0508 78.6054 16.8798C78.5244 16.7088 78.4389 16.5378 78.3489 16.3668C78.2679 16.1868 78.1824 16.0158 78.0924 15.8538C78.0114 15.6917 77.9304 15.5522 77.8494 15.4352C77.7324 15.2642 77.5794 15.0887 77.3904 14.9087C77.2013 14.7197 76.9898 14.5487 76.7558 14.3957C76.5218 14.2426 76.2698 14.1166 75.9998 14.0176C75.7387 13.9186 75.4777 13.8601 75.2167 13.8421C75.0547 13.8421 74.9107 13.8421 74.7847 13.8421C74.6677 13.8331 74.5507 13.8286 74.4336 13.8286C74.3166 13.8286 74.1951 13.8286 74.0691 13.8286C73.9431 13.8286 73.7946 13.8286 73.6236 13.8286C73.2726 13.8286 72.908 13.8376 72.53 13.8556C72.161 13.8736 71.801 13.9186 71.4499 13.9906C71.3689 14.0086 71.2879 14.0356 71.2069 14.0716C71.1259 14.0986 71.0854 14.1706 71.0854 14.2876V22.7258C71.1034 22.8428 71.1664 22.9193 71.2744 22.9553C71.7875 22.9103 72.332 22.8743 72.908 22.8473C73.4931 22.8113 74.0421 22.7933 74.5552 22.7933C74.8072 22.7753 75.0322 22.6943 75.2302 22.5502C75.4372 22.3972 75.6172 22.2172 75.7702 22.0102C75.9233 21.7942 76.0583 21.5602 76.1753 21.3082C76.2923 21.0471 76.3958 20.7951 76.4858 20.5521C76.5758 20.3091 76.6523 20.0931 76.7153 19.9041C76.7873 19.706 76.8548 19.5575 76.9178 19.4585C76.9448 19.4135 76.9718 19.3865 76.9988 19.3775C77.0258 19.3685 77.1023 19.364 77.2283 19.364C77.2823 19.364 77.3364 19.3775 77.3904 19.4045C77.4534 19.4225 77.4849 19.454 77.4849 19.499C77.4849 19.823 77.4714 20.1111 77.4444 20.3631C77.4264 20.6151 77.4039 20.8401 77.3769 21.0381C77.3499 21.2361 77.3229 21.4207 77.2958 21.5917C77.2778 21.7537 77.2688 21.9112 77.2688 22.0642V27.1136C77.2508 27.1406 77.2283 27.1631 77.2013 27.1811C77.1563 27.2261 77.1113 27.2486 77.0663 27.2486C76.9943 27.2486 76.9223 27.1856 76.8503 27.0596C76.7873 26.9246 76.7198 26.758 76.6478 26.56C76.5848 26.362 76.5173 26.1415 76.4453 25.8985C76.3823 25.6555 76.3103 25.417 76.2293 25.1829C76.1573 24.9489 76.0763 24.7374 75.9863 24.5484C75.9052 24.3594 75.8107 24.2199 75.7027 24.1299C75.6037 24.0489 75.4597 23.9768 75.2707 23.9138C75.0817 23.8508 74.8657 23.8013 74.6227 23.7653C74.3886 23.7293 74.1366 23.7023 73.8666 23.6843C73.5966 23.6573 73.3356 23.6393 73.0835 23.6303C72.8405 23.6213 72.611 23.6168 72.395 23.6168C72.179 23.6168 72.008 23.6168 71.882 23.6168C71.6839 23.6168 71.5264 23.6303 71.4094 23.6573C71.3014 23.6753 71.2159 23.7203 71.1529 23.7923C71.0989 23.8643 71.0629 23.9678 71.0449 24.1029C71.0269 24.2379 71.0179 24.4224 71.0179 24.6564V30.0973C71.0179 30.3583 71.0314 30.5878 71.0584 30.7858C71.0854 30.9839 71.1304 31.1594 71.1934 31.3124C71.2654 31.4564 71.3554 31.5869 71.4634 31.7039C71.5804 31.8119 71.7199 31.9154 71.882 32.0144C72.008 32.0864 72.1475 32.1584 72.3005 32.2304C72.4625 32.2934 72.611 32.325 72.746 32.325H74.8657C75.0727 32.325 75.2572 32.325 75.4192 32.325C75.5902 32.316 75.7612 32.3069 75.9323 32.2979C76.1033 32.2799 76.2833 32.2574 76.4723 32.2304C76.6613 32.1944 76.8818 32.1494 77.1338 32.0954C77.4039 32.0324 77.6559 31.9244 77.8899 31.7714C78.1239 31.6184 78.3444 31.4339 78.5514 31.2179C78.7675 31.0019 78.97 30.7588 79.159 30.4888C79.348 30.2188 79.528 29.9353 79.699 29.6383C79.726 29.5933 79.7755 29.4987 79.8475 29.3547C79.9195 29.2017 79.996 29.0847 80.0771 29.0037C80.0861 28.9857 80.1086 28.9767 80.1446 28.9767C80.1806 28.9767 80.2121 29.0082 80.2391 29.0712C80.3021 29.1882 80.3336 29.4222 80.3336 29.7733C80.3336 29.8813 80.3021 30.0478 80.2391 30.2728C80.1761 30.4888 80.1221 30.6958 80.0771 30.8938C80.032 31.0559 79.996 31.2584 79.969 31.5014C79.942 31.7444 79.906 31.9829 79.861 32.2169C79.816 32.442 79.7485 32.6355 79.6585 32.7975C79.5775 32.9595 79.465 33.0405 79.321 33.0405C79.267 33.0405 79.222 33.036 79.186 33.027C79.15 33.027 79.1185 33.027 79.0915 33.027C79.0645 33.009 78.988 33 78.862 33H68.9117C68.7047 33 68.4527 33.0045 68.1557 33.0135C67.8677 33.0315 67.5751 33.045 67.2781 33.054C66.9811 33.072 66.6976 33.0855 66.4276 33.0945C66.1665 33.1125 65.9595 33.1215 65.8065 33.1215H65.4285C65.3295 33.1215 65.2305 33.099 65.1315 33.054C65.0325 33.018 64.983 32.955 64.983 32.865C64.983 32.784 64.992 32.703 65.01 32.622C65.037 32.541 65.091 32.478 65.172 32.433C65.19 32.424 65.2305 32.415 65.2935 32.406C65.3655 32.397 65.442 32.388 65.523 32.379C65.604 32.37 65.6805 32.3655 65.7525 32.3655C65.8245 32.3565 65.8785 32.352 65.9145 32.352C66.1305 32.334 66.3106 32.3205 66.4546 32.3115C66.5986 32.2934 66.7696 32.2484 66.9676 32.1764C67.3546 32.0594 67.6472 31.9064 67.8452 31.7174C68.0432 31.5194 68.1422 31.2089 68.1422 30.7858V15.1517ZM82.1157 32.7435C82.1157 32.5365 82.2057 32.4195 82.3857 32.3925H82.8988C83.0608 32.3925 83.2093 32.3925 83.3443 32.3925C83.4793 32.3835 83.5963 32.3655 83.6953 32.3385C83.7943 32.3115 83.8708 32.2664 83.9248 32.2034C83.9878 32.1404 84.0193 32.0549 84.0193 31.9469V21.0651C84.0193 20.9661 83.9788 20.8851 83.8978 20.8221C83.8168 20.7501 83.7268 20.7141 83.6278 20.7141H82.6692H82.4127C82.3677 20.7141 82.3137 20.7096 82.2507 20.7006C82.1877 20.6916 82.1157 20.6826 82.0347 20.6736C81.9897 20.6556 81.9492 20.6196 81.9132 20.5656C81.8862 20.5116 81.8727 20.4621 81.8727 20.4171C81.8727 20.2461 81.9807 20.1606 82.1967 20.1606H85.5179C85.5449 20.1606 85.6125 20.1561 85.7205 20.1471C85.8375 20.1381 85.959 20.1291 86.085 20.1201C86.211 20.1111 86.3235 20.1021 86.4225 20.0931C86.5215 20.0841 86.58 20.0796 86.598 20.0796C86.724 20.0706 86.8635 20.0616 87.0166 20.0526C87.1786 20.0436 87.3091 20.0391 87.4081 20.0391C87.4351 20.0391 87.4846 20.0436 87.5566 20.0526C87.6286 20.0526 87.7051 20.0571 87.7861 20.0661C87.8671 20.0661 87.9436 20.0706 88.0156 20.0796C88.0966 20.0796 88.1506 20.0796 88.1776 20.0796C88.3036 20.1066 88.3667 20.1786 88.3667 20.2956C88.3667 20.3946 88.3351 20.4936 88.2721 20.5926C88.2181 20.6556 88.1326 20.6871 88.0156 20.6871H86.5305C86.4675 20.6871 86.418 20.7231 86.382 20.7951C86.346 20.8581 86.3145 20.9391 86.2875 21.0381C86.2695 21.1281 86.256 21.2226 86.247 21.3217C86.247 21.4207 86.247 21.5062 86.247 21.5782C86.247 22.0462 86.2695 22.5142 86.3145 22.9823C86.3595 23.4413 86.382 23.9678 86.382 24.5619V32.0144C86.382 32.0774 86.3955 32.1539 86.4225 32.2439C86.4585 32.325 86.517 32.3655 86.598 32.3655H90.9183C91.1614 32.3655 91.3909 32.2574 91.6069 32.0414C91.8229 31.8254 92.0209 31.5734 92.2009 31.2854C92.3899 30.9974 92.552 30.7138 92.687 30.4348C92.831 30.1468 92.948 29.9353 93.038 29.8003C93.092 29.7373 93.146 29.7058 93.2 29.7058C93.245 29.7058 93.2855 29.7463 93.3215 29.8273C93.3575 29.9533 93.3755 30.0658 93.3755 30.1648C93.3845 30.2548 93.389 30.3898 93.389 30.5698C93.389 30.6418 93.3755 30.7498 93.3485 30.8938C93.3305 31.0289 93.3035 31.1729 93.2675 31.3259C93.2405 31.4789 93.2135 31.6274 93.1865 31.7714C93.1685 31.9064 93.1595 32.0144 93.1595 32.0954C93.1595 32.1404 93.1595 32.2034 93.1595 32.2844C93.1595 32.3565 93.155 32.433 93.146 32.514C93.146 32.595 93.1415 32.6715 93.1325 32.7435C93.1235 32.8065 93.11 32.8515 93.092 32.8785C92.966 32.9595 92.8535 33 92.7545 33C91.6294 33 90.4278 32.991 89.1497 32.973C87.8716 32.946 86.598 32.9325 85.3289 32.9325C85.1039 32.9325 84.8699 32.937 84.6269 32.946C84.3839 32.955 84.1498 32.9685 83.9248 32.9865C83.6998 32.9955 83.4838 33.0045 83.2768 33.0135C83.0788 33.0225 82.9078 33.027 82.7637 33.027C82.5747 33.027 82.4172 33.018 82.2912 33C82.1742 32.973 82.1157 32.8875 82.1157 32.7435ZM102.705 31.4879V21.3892C102.705 21.2992 102.696 21.2001 102.678 21.0921C102.669 20.9841 102.646 20.8806 102.61 20.7816C102.583 20.6826 102.538 20.5971 102.475 20.5251C102.412 20.4441 102.331 20.3901 102.232 20.3631C102.124 20.3361 101.998 20.3136 101.854 20.2956C101.719 20.2776 101.58 20.2641 101.436 20.2551C101.301 20.2371 101.17 20.2191 101.044 20.2011C100.918 20.1831 100.819 20.1606 100.747 20.1336C100.648 20.1066 100.599 20.0436 100.599 19.9446C100.599 19.8185 100.662 19.7555 100.788 19.7555H101.355C101.67 19.7555 101.989 19.778 102.313 19.823C102.637 19.859 102.97 19.8771 103.312 19.8771C103.906 19.8771 104.451 19.8545 104.946 19.8095C105.45 19.7555 105.958 19.7285 106.471 19.7285C106.66 19.7285 106.885 19.733 107.147 19.742C107.408 19.751 107.669 19.7645 107.93 19.7825C108.191 19.7915 108.434 19.805 108.659 19.823C108.893 19.841 109.064 19.859 109.172 19.8771C109.64 19.9311 110.058 20.0571 110.427 20.2551C110.796 20.4531 111.107 20.7096 111.359 21.0246C111.62 21.3397 111.813 21.7042 111.939 22.1182C112.074 22.5232 112.142 22.9598 112.142 23.4278C112.142 23.8238 112.074 24.1704 111.939 24.4674C111.804 24.7554 111.62 25.0074 111.386 25.2234C111.161 25.4395 110.891 25.6195 110.576 25.7635C110.261 25.9075 109.928 26.029 109.577 26.128C109.514 26.146 109.482 26.1865 109.482 26.2495C109.482 26.2855 109.5 26.317 109.536 26.344C109.581 26.371 109.626 26.3935 109.671 26.4115C110.166 26.6005 110.571 26.7896 110.886 26.9786C111.201 27.1676 111.494 27.4286 111.764 27.7616C111.944 27.9866 112.083 28.2432 112.182 28.5312C112.29 28.8102 112.344 29.1072 112.344 29.4222C112.344 29.8363 112.277 30.2548 112.142 30.6778C112.007 31.0919 111.804 31.4699 111.534 31.8119C111.165 32.2799 110.742 32.5995 110.265 32.7705C109.797 32.9415 109.28 33.027 108.713 33.027C108.488 33.027 108.231 33.0225 107.943 33.0135C107.655 33.0045 107.363 33 107.066 33H105.594H103.339H100.788C100.572 33 100.464 32.9145 100.464 32.7435C100.464 32.5815 100.572 32.4645 100.788 32.3925C101.058 32.3295 101.314 32.2889 101.557 32.2709C101.8 32.2529 102.043 32.2214 102.286 32.1764C102.475 32.1404 102.592 32.0504 102.637 31.9064C102.682 31.7534 102.705 31.6139 102.705 31.4879ZM104.919 26.668V32.0009C104.919 32.1359 104.986 32.2529 105.121 32.352C105.256 32.442 105.391 32.487 105.526 32.487H106.255C106.678 32.487 107.043 32.4735 107.349 32.4465C107.655 32.4105 107.925 32.3475 108.159 32.2574C108.393 32.1584 108.6 32.0324 108.78 31.8794C108.969 31.7174 109.154 31.5059 109.334 31.2449C109.604 30.8848 109.766 30.5653 109.82 30.2863C109.874 29.9983 109.901 29.7103 109.901 29.4222C109.901 29.2782 109.892 29.1252 109.874 28.9632C109.856 28.8012 109.829 28.6437 109.793 28.4907C109.766 28.3377 109.73 28.1982 109.685 28.0721C109.649 27.9371 109.604 27.8201 109.55 27.7211C109.316 27.3521 109.068 27.0641 108.807 26.8571C108.546 26.65 108.272 26.497 107.984 26.398C107.705 26.29 107.421 26.2225 107.133 26.1955C106.845 26.1685 106.561 26.155 106.282 26.155H105.27C105.036 26.155 104.919 26.326 104.919 26.668ZM104.919 25.696C104.919 25.813 105.022 25.8715 105.229 25.8715C105.346 25.8715 105.513 25.867 105.729 25.858C105.954 25.849 106.183 25.84 106.417 25.831C106.66 25.813 106.894 25.795 107.12 25.777C107.354 25.75 107.538 25.723 107.673 25.696C107.997 25.606 108.267 25.4755 108.483 25.3044C108.708 25.1334 108.888 24.9309 109.023 24.6969C109.158 24.4629 109.253 24.2064 109.307 23.9273C109.361 23.6393 109.388 23.3333 109.388 23.0093C109.388 22.5682 109.307 22.1722 109.145 21.8212C108.992 21.4702 108.767 21.1731 108.47 20.9301C108.182 20.6871 107.835 20.5026 107.43 20.3766C107.025 20.2416 106.579 20.1741 106.093 20.1741H105.688C105.472 20.1741 105.288 20.2101 105.135 20.2821C104.991 20.3451 104.919 20.4666 104.919 20.6466V25.696ZM124.414 32.676C124.414 32.415 124.441 32.0909 124.495 31.7039C124.549 31.3169 124.576 30.9389 124.576 30.5698C124.576 30.5068 124.563 30.4303 124.536 30.3403C124.518 30.2413 124.468 30.1918 124.387 30.1918C124.351 30.1918 124.306 30.2413 124.252 30.3403C124.207 30.4303 124.144 30.5248 124.063 30.6238C123.775 30.9479 123.487 31.2539 123.199 31.5419C122.911 31.8209 122.605 32.0684 122.281 32.2844C121.957 32.5005 121.606 32.6715 121.228 32.7975C120.85 32.9145 120.431 32.973 119.972 32.973C119.063 32.973 118.262 32.6715 117.569 32.0684C117.344 31.8884 117.16 31.6949 117.016 31.4879C116.881 31.2719 116.773 31.0469 116.692 30.8128C116.611 30.5788 116.557 30.3313 116.53 30.0703C116.503 29.8093 116.489 29.5392 116.489 29.2602V21.2947C116.489 21.1596 116.476 21.0381 116.449 20.9301C116.431 20.8131 116.354 20.7546 116.219 20.7546H114.113C114.032 20.7546 113.965 20.7186 113.91 20.6466C113.856 20.5746 113.829 20.5026 113.829 20.4306C113.829 20.3946 113.838 20.3271 113.856 20.2281C113.883 20.1291 113.947 20.0796 114.046 20.0796H118.501C118.645 20.0796 118.717 20.1426 118.717 20.2686V28.5582C118.717 28.9002 118.766 29.2377 118.865 29.5708C118.964 29.9038 119.113 30.2008 119.311 30.4618C119.509 30.7228 119.752 30.9344 120.04 31.0964C120.337 31.2584 120.679 31.3394 121.066 31.3394C121.516 31.3394 121.903 31.2989 122.227 31.2179C122.551 31.1279 122.884 30.9884 123.226 30.7993C123.604 30.5743 123.937 30.2503 124.225 29.8273C124.333 29.6743 124.419 29.5302 124.482 29.3952C124.545 29.2602 124.594 29.1252 124.63 28.9902C124.666 28.8552 124.689 28.7112 124.698 28.5582C124.716 28.4052 124.729 28.2342 124.738 28.0451L124.873 21.3487C124.873 21.3217 124.869 21.2677 124.86 21.1866C124.86 21.0966 124.846 21.0021 124.819 20.9031C124.801 20.8041 124.77 20.7186 124.725 20.6466C124.689 20.5656 124.63 20.5251 124.549 20.5251C124.495 20.5251 124.387 20.5341 124.225 20.5521C124.072 20.5701 123.892 20.5791 123.685 20.5791C123.487 20.5791 123.298 20.5836 123.118 20.5926C122.947 20.5926 122.812 20.5926 122.713 20.5926C122.524 20.5926 122.367 20.5836 122.241 20.5656C122.115 20.5476 122.052 20.4801 122.052 20.3631C122.052 20.3001 122.056 20.2326 122.065 20.1606C122.074 20.0886 122.11 20.0301 122.173 19.9851C122.254 19.9311 122.344 19.8951 122.443 19.8771C122.551 19.859 122.655 19.85 122.754 19.85C122.88 19.85 123.024 19.859 123.186 19.8771C123.348 19.8951 123.51 19.9131 123.672 19.9311C123.843 19.9491 124.005 19.9671 124.158 19.9851C124.32 20.0031 124.459 20.0121 124.576 20.0121H127.168C127.231 20.0121 127.263 20.0436 127.263 20.1066L126.844 30.7318V30.9208C126.844 30.9659 126.844 31.0019 126.844 31.0289C126.844 31.0559 126.849 31.0919 126.858 31.1369C126.903 31.2899 126.97 31.4294 127.06 31.5554C127.15 31.6814 127.294 31.7444 127.492 31.7444C127.609 31.7444 127.735 31.7354 127.871 31.7174C128.006 31.6994 128.136 31.6769 128.262 31.6499C128.388 31.6229 128.505 31.6004 128.613 31.5824C128.73 31.5644 128.825 31.5554 128.897 31.5554C128.996 31.5554 129.054 31.5914 129.072 31.6634C129.099 31.7354 129.113 31.7984 129.113 31.8524C129.113 31.9604 129.072 32.0459 128.991 32.1089C128.919 32.1629 128.843 32.2124 128.762 32.2574C128.564 32.3205 128.384 32.352 128.222 32.352C128.123 32.352 128.028 32.3565 127.938 32.3655C127.857 32.3655 127.74 32.3745 127.587 32.3925C127.299 32.4285 126.984 32.487 126.642 32.568C126.309 32.649 126.007 32.73 125.737 32.811C125.557 32.883 125.386 32.946 125.224 33C125.071 33.045 124.9 33.0675 124.711 33.0675C124.612 33.0675 124.536 33.027 124.482 32.946C124.437 32.865 124.414 32.775 124.414 32.676ZM135.431 26.2495L137.74 26.155C138.1 26.128 138.374 26.0425 138.563 25.8985C138.752 25.7455 138.892 25.5655 138.982 25.3584C139.081 25.1424 139.153 24.9084 139.198 24.6564C139.252 24.4044 139.328 24.1569 139.427 23.9138C139.454 23.8058 139.499 23.7518 139.562 23.7518C139.688 23.7518 139.751 23.7833 139.751 23.8463V24.3864C139.751 24.7464 139.733 25.1379 139.697 25.561C139.67 25.975 139.657 26.3305 139.657 26.6275C139.657 26.9156 139.679 27.2216 139.724 27.5456C139.778 27.8696 139.805 28.2027 139.805 28.5447C139.805 28.5897 139.801 28.6617 139.792 28.7607C139.783 28.8597 139.769 28.9632 139.751 29.0712C139.733 29.1792 139.706 29.2737 139.67 29.3547C139.643 29.4357 139.603 29.4762 139.549 29.4762C139.45 29.4762 139.387 29.4312 139.36 29.3412C139.342 29.2422 139.324 29.1522 139.306 29.0712C139.288 28.9632 139.256 28.8327 139.211 28.6797C139.166 28.5267 139.117 28.3737 139.063 28.2207C139.009 28.0586 138.959 27.9146 138.914 27.7886C138.869 27.6626 138.838 27.5771 138.82 27.5321C138.739 27.3701 138.581 27.2441 138.347 27.1541C138.113 27.0551 137.848 26.9831 137.551 26.9381C137.263 26.8841 136.961 26.8526 136.646 26.8436C136.34 26.8256 136.07 26.8166 135.836 26.8166H135.431C135.287 26.8166 135.197 26.8481 135.161 26.9111C135.125 26.9651 135.107 27.0551 135.107 27.1811V31.9199C135.107 32.1899 135.193 32.361 135.364 32.433H139.468C139.648 32.433 139.832 32.433 140.021 32.433C140.219 32.424 140.35 32.4015 140.413 32.3655C140.548 32.3295 140.66 32.2529 140.75 32.1359C140.849 32.0099 140.93 31.8929 140.993 31.7849C141.02 31.7399 141.07 31.6454 141.142 31.5014C141.223 31.3574 141.304 31.2044 141.385 31.0424C141.475 30.8713 141.556 30.7138 141.628 30.5698C141.709 30.4258 141.768 30.3313 141.804 30.2863C141.858 30.1783 141.948 30.1243 142.074 30.1243C142.155 30.1243 142.213 30.1558 142.249 30.2188V32.2304C142.249 32.3115 142.24 32.388 142.222 32.46C142.213 32.523 142.2 32.604 142.182 32.703C142.146 32.829 142.101 32.9145 142.047 32.9595C141.993 32.9955 141.889 33.0315 141.736 33.0675C140.827 33.0675 139.963 33.063 139.144 33.054C138.334 33.045 137.51 33.036 136.673 33.027C135.836 33.027 134.954 33.0225 134.027 33.0135C133.1 33.0045 132.065 33 130.922 33C130.769 33 130.692 32.9235 130.692 32.7705C130.692 32.6715 130.742 32.595 130.841 32.541C130.94 32.487 131.03 32.451 131.111 32.433C131.165 32.433 131.25 32.4285 131.367 32.4195C131.493 32.4105 131.628 32.406 131.772 32.406C131.916 32.397 132.056 32.388 132.191 32.379C132.326 32.37 132.443 32.3655 132.542 32.3655C132.758 32.3655 132.866 32.1944 132.866 31.8524V21.8887C132.866 21.7357 132.848 21.5467 132.812 21.3217C132.785 21.0966 132.726 20.9076 132.636 20.7546C132.573 20.7096 132.542 20.6871 132.542 20.6871L130.652 20.4981C130.481 20.4981 130.395 20.4126 130.395 20.2416C130.395 20.1966 130.404 20.1426 130.422 20.0796C130.44 20.0076 130.499 19.9716 130.598 19.9716H132.812C133.676 19.9716 134.526 19.9671 135.364 19.9581C136.201 19.9491 136.97 19.9446 137.672 19.9446H139.589C139.733 19.9446 139.882 19.9491 140.035 19.9581C140.197 19.9581 140.35 19.9626 140.494 19.9716C140.638 19.9716 140.768 19.9761 140.885 19.9851C141.002 19.9851 141.092 19.9851 141.155 19.9851C141.218 19.9941 141.268 20.0256 141.304 20.0796C141.34 20.1336 141.362 20.2011 141.371 20.2821C141.389 20.3541 141.398 20.4306 141.398 20.5116C141.407 20.5836 141.412 20.6421 141.412 20.6871V22.8878C141.412 22.9688 141.38 23.0093 141.317 23.0093C141.218 23.0093 141.142 22.9463 141.088 22.8203C141.043 22.6853 140.971 22.5277 140.872 22.3477C140.791 22.1497 140.692 21.9517 140.575 21.7537C140.458 21.5557 140.372 21.4027 140.318 21.2947C140.237 21.1416 140.111 21.0246 139.94 20.9436C139.778 20.8536 139.594 20.7861 139.387 20.7411C139.18 20.6871 138.968 20.6466 138.752 20.6196C138.536 20.5926 138.347 20.5611 138.185 20.5251C138.131 20.5251 137.992 20.5206 137.767 20.5116C137.542 20.5026 137.285 20.4981 136.997 20.4981C136.718 20.4891 136.439 20.4801 136.16 20.4711C135.89 20.4621 135.679 20.4576 135.526 20.4576C135.337 20.4576 135.22 20.5116 135.175 20.6196C135.13 20.7276 135.107 20.8896 135.107 21.1056V25.9255C135.107 26.0065 135.134 26.083 135.188 26.155C135.251 26.218 135.332 26.2495 135.431 26.2495ZM145.206 33C145.116 33 145.017 32.9955 144.909 32.9865C144.801 32.9775 144.697 32.9595 144.598 32.9325C144.508 32.8965 144.432 32.847 144.369 32.784C144.306 32.721 144.274 32.6355 144.274 32.5275C144.274 32.4465 144.279 32.3745 144.288 32.3115C144.306 32.2484 144.355 32.1989 144.436 32.1629C144.724 32.1179 144.963 32.0864 145.152 32.0684C145.35 32.0504 145.516 32.0099 145.651 31.9469C145.786 31.8839 145.894 31.7759 145.975 31.6229C146.065 31.4609 146.142 31.2179 146.205 30.8938C146.205 30.1288 146.209 29.3412 146.218 28.5312C146.236 27.7211 146.263 26.9381 146.299 26.182C146.317 25.633 146.362 25.1019 146.434 24.5889C146.515 24.0669 146.556 23.5313 146.556 22.9823C146.556 22.8833 146.551 22.8113 146.542 22.7663C146.533 22.7213 146.506 22.6358 146.461 22.5097C146.434 22.4647 146.38 22.3837 146.299 22.2667C146.218 22.1407 146.128 22.0147 146.029 21.8887C145.93 21.7537 145.831 21.6277 145.732 21.5107C145.642 21.3847 145.575 21.2992 145.53 21.2542C145.44 21.1461 145.309 21.0606 145.138 20.9976C144.967 20.9256 144.796 20.8581 144.625 20.7951C144.463 20.7231 144.319 20.6466 144.193 20.5656C144.076 20.4756 144.018 20.3541 144.018 20.2011C144.018 20.1201 144.045 20.0571 144.099 20.0121C144.162 19.9581 144.234 19.9176 144.315 19.8906C144.405 19.8635 144.49 19.8455 144.571 19.8365C144.661 19.8275 144.733 19.823 144.787 19.823C144.805 19.823 144.841 19.8275 144.895 19.8365C144.949 19.8455 145.008 19.859 145.071 19.8771C145.134 19.8861 145.192 19.8951 145.246 19.9041C145.3 19.9131 145.341 19.9176 145.368 19.9176H146.799C146.844 19.9356 146.916 19.9761 147.015 20.0391C147.114 20.0931 147.181 20.1381 147.217 20.1741C147.901 20.9211 148.572 21.6547 149.229 22.3747C149.886 23.0948 150.534 23.8058 151.173 24.5079C151.821 25.2099 152.465 25.9075 153.104 26.6005C153.752 27.2936 154.404 27.9956 155.061 28.7067C155.106 28.7517 155.147 28.7922 155.183 28.8282C155.219 28.8552 155.255 28.8822 155.291 28.9092C155.327 28.9272 155.358 28.9362 155.385 28.9362C155.466 28.9362 155.53 28.9002 155.575 28.8282C155.62 28.7472 155.642 28.6977 155.642 28.6797V25.4125V24.2649C155.642 23.9498 155.633 23.6303 155.615 23.3063C155.606 22.9823 155.588 22.6808 155.561 22.4017C155.534 22.1137 155.498 21.8572 155.453 21.6322C155.408 21.4072 155.354 21.2406 155.291 21.1326C155.165 20.9256 154.971 20.7816 154.71 20.7006C154.449 20.6196 154.188 20.5611 153.927 20.5251C153.666 20.4801 153.437 20.4351 153.239 20.3901C153.05 20.3451 152.955 20.2596 152.955 20.1336C152.955 19.8816 153.104 19.7555 153.401 19.7555H158.518C158.689 19.7555 158.774 19.859 158.774 20.0661C158.774 20.1561 158.675 20.2326 158.477 20.2956C158.279 20.3496 158.054 20.4216 157.802 20.5116C157.55 20.6016 157.303 20.7186 157.06 20.8626C156.826 21.0066 156.668 21.2046 156.587 21.4567C156.488 21.6817 156.421 21.9247 156.385 22.1857C156.349 22.4467 156.331 22.8068 156.331 23.2658V32.7165C156.331 32.7975 156.299 32.865 156.236 32.919C156.173 32.973 156.124 33 156.088 33C155.971 33 155.84 32.9145 155.696 32.7435C155.66 32.6985 155.543 32.568 155.345 32.352C155.156 32.1359 154.908 31.8614 154.602 31.5284C154.296 31.1954 153.945 30.8173 153.549 30.3943C153.153 29.9713 152.739 29.5257 152.307 29.0577C151.875 28.5897 151.434 28.1126 150.984 27.6266C150.534 27.1406 150.102 26.6725 149.688 26.2225C149.274 25.7725 148.883 25.3539 148.513 24.9669C148.153 24.5709 147.847 24.2334 147.595 23.9543C147.505 23.8823 147.424 23.8463 147.352 23.8463C147.208 23.8463 147.118 23.9363 147.082 24.1164C147.046 24.2964 147.028 24.4854 147.028 24.6834C147.028 24.7734 147.028 24.9084 147.028 25.0884C147.037 25.2594 147.046 25.462 147.055 25.696C147.064 25.921 147.073 26.164 147.082 26.425C147.1 26.677 147.114 26.9246 147.123 27.1676C147.132 27.4016 147.136 27.6176 147.136 27.8156C147.145 28.0136 147.15 28.1712 147.15 28.2882V28.9362C147.15 29.1432 147.15 29.3772 147.15 29.6383C147.159 29.8993 147.172 30.1558 147.19 30.4078C147.217 30.6598 147.249 30.8893 147.285 31.0964C147.33 31.3034 147.393 31.4609 147.474 31.5689C147.564 31.7129 147.681 31.8164 147.825 31.8794C147.969 31.9424 148.122 31.9874 148.284 32.0144C148.446 32.0324 148.608 32.0459 148.77 32.0549C148.941 32.0549 149.09 32.0684 149.216 32.0954C149.351 32.1224 149.459 32.1764 149.54 32.2574C149.621 32.3295 149.661 32.4465 149.661 32.6085C149.661 32.6895 149.652 32.757 149.634 32.811C149.625 32.856 149.576 32.919 149.486 33H145.206ZM166.578 30.9614C166.578 30.7183 166.632 30.4753 166.74 30.2323C166.848 29.9893 166.933 29.7688 166.996 29.5708C166.996 29.5257 167.005 29.4492 167.023 29.3412C167.05 29.2242 167.077 29.1027 167.104 28.9767C167.131 28.8507 167.158 28.7337 167.185 28.6257C167.212 28.5087 167.235 28.4232 167.253 28.3692C167.28 28.2612 167.352 28.2072 167.469 28.2072C167.586 28.2072 167.653 28.2927 167.671 28.4637V28.7742C167.671 28.9182 167.676 29.0172 167.685 29.0712C167.694 29.1252 167.707 29.1747 167.725 29.2197C167.797 29.6158 167.91 30.0028 168.063 30.3808C168.216 30.7498 168.414 31.0829 168.657 31.3799C168.9 31.6679 169.188 31.9019 169.521 32.0819C169.863 32.2619 170.259 32.352 170.709 32.352C171.042 32.352 171.362 32.3024 171.668 32.2034C171.974 32.0954 172.244 31.9469 172.478 31.7579C172.721 31.5599 172.91 31.3214 173.045 31.0424C173.189 30.7633 173.261 30.4483 173.261 30.0973C173.261 29.5573 173.162 29.1117 172.964 28.7607C172.775 28.4097 172.523 28.1216 172.208 27.8966C171.902 27.6626 171.546 27.4691 171.141 27.3161C170.745 27.1631 170.336 27.0191 169.913 26.8841C169.499 26.74 169.089 26.5825 168.684 26.4115C168.288 26.2405 167.932 26.02 167.617 25.75C167.311 25.471 167.059 25.1244 166.861 24.7104C166.672 24.2964 166.578 23.7743 166.578 23.1443C166.578 22.9373 166.596 22.7483 166.632 22.5772C166.677 22.4062 166.731 22.2532 166.794 22.1182C166.857 21.9742 166.92 21.8482 166.983 21.7402C167.046 21.6322 167.104 21.5332 167.158 21.4432C167.293 21.2271 167.46 21.0156 167.658 20.8086C167.865 20.5926 168.103 20.4036 168.373 20.2416C168.643 20.0796 168.945 19.9491 169.278 19.85C169.62 19.742 169.989 19.688 170.385 19.688C170.754 19.688 171.137 19.76 171.533 19.9041C171.929 20.0391 172.284 20.2236 172.599 20.4576C172.698 20.5566 172.797 20.6556 172.896 20.7546C172.995 20.8536 173.094 20.9031 173.193 20.9031C173.328 20.9031 173.432 20.8626 173.504 20.7816C173.585 20.6916 173.675 20.5746 173.774 20.4306C173.792 20.4216 173.805 20.4126 173.814 20.4036C173.832 20.3946 173.85 20.3901 173.868 20.3901C173.895 20.3901 173.913 20.4126 173.922 20.4576C173.94 20.5026 173.954 20.5566 173.963 20.6196C173.981 20.6736 173.99 20.7321 173.99 20.7951C173.999 20.8581 174.003 20.9031 174.003 20.9301C174.003 20.9571 173.99 21.0471 173.963 21.2001C173.945 21.3532 173.913 21.5377 173.868 21.7537C173.832 21.9607 173.787 22.1857 173.733 22.4287C173.688 22.6628 173.634 22.8833 173.571 23.0903C173.517 23.2883 173.459 23.4548 173.396 23.5898C173.342 23.7248 173.288 23.7923 173.234 23.7923C173.216 23.7923 173.202 23.7878 173.193 23.7788C173.166 23.7608 173.148 23.7428 173.139 23.7248C173.067 23.5898 173.013 23.4773 172.977 23.3873C172.95 23.2973 172.928 23.2118 172.91 23.1308C172.901 23.0498 172.892 22.9688 172.883 22.8878C172.883 22.8068 172.874 22.7123 172.856 22.6042C172.838 22.4692 172.793 22.3387 172.721 22.2127C172.613 21.9157 172.491 21.6727 172.356 21.4837C172.23 21.2947 172.055 21.1011 171.83 20.9031C171.695 20.7411 171.564 20.6196 171.438 20.5386C171.321 20.4486 171.191 20.3856 171.047 20.3496C170.903 20.3046 170.741 20.2821 170.561 20.2821C170.381 20.2731 170.16 20.2686 169.899 20.2686C169.647 20.2686 169.413 20.3271 169.197 20.4441C168.99 20.5611 168.81 20.7141 168.657 20.9031C168.504 21.0921 168.382 21.3127 168.292 21.5647C168.211 21.8077 168.171 22.0597 168.171 22.3207C168.171 22.7618 168.265 23.1263 168.454 23.4143C168.652 23.6933 168.909 23.9318 169.224 24.1299C169.548 24.3189 169.913 24.4854 170.318 24.6294C170.723 24.7644 171.132 24.9084 171.546 25.0614C171.969 25.2054 172.383 25.3764 172.788 25.5745C173.193 25.7635 173.553 26.0155 173.868 26.3305C174.192 26.6365 174.449 27.0191 174.638 27.4781C174.836 27.9371 174.935 28.5087 174.935 29.1927C174.935 29.6518 174.822 30.1063 174.597 30.5563C174.381 31.0064 174.089 31.4249 173.72 31.8119C173.558 31.9919 173.351 32.1539 173.099 32.2979C172.847 32.442 172.568 32.568 172.262 32.676C171.965 32.775 171.645 32.856 171.303 32.919C170.97 32.973 170.642 33 170.318 33C169.994 33 169.616 32.9325 169.183 32.7975C168.751 32.6535 168.342 32.4825 167.955 32.2844C167.568 32.0774 167.239 31.8569 166.969 31.6229C166.708 31.3799 166.578 31.1594 166.578 30.9614ZM175.704 32.622C175.704 32.586 175.731 32.532 175.785 32.46C175.83 32.388 175.902 32.352 176.001 32.352C176.145 32.352 176.299 32.3295 176.461 32.2844C176.632 32.2394 176.794 32.1719 176.947 32.0819C177.109 31.9829 177.257 31.8614 177.392 31.7174C177.536 31.5644 177.658 31.3844 177.757 31.1774L181.334 22.6988C181.343 22.6808 181.361 22.6403 181.388 22.5772C181.424 22.5052 181.442 22.4467 181.442 22.4017C181.442 22.3027 181.42 22.2037 181.375 22.1047C181.33 22.0057 181.276 21.9157 181.213 21.8347C181.159 21.7447 181.109 21.6682 181.064 21.6052C181.019 21.5332 180.997 21.4702 180.997 21.4162C180.997 21.3262 181.028 21.2542 181.091 21.2001C181.154 21.1461 181.226 21.1056 181.307 21.0786C181.397 21.0426 181.492 21.0201 181.591 21.0111C181.69 21.0021 181.775 20.9886 181.847 20.9706C181.928 20.9346 182.018 20.8761 182.117 20.7951C182.216 20.7051 182.297 20.6331 182.36 20.5791C182.387 20.5341 182.41 20.4756 182.428 20.4036C182.446 20.3316 182.464 20.2641 182.482 20.2011C182.509 20.1381 182.54 20.0841 182.576 20.0391C182.621 19.9941 182.68 19.9716 182.752 19.9716C182.932 19.9716 183.04 20.0481 183.076 20.2011L186.937 31.7579C186.991 31.9289 187.05 32.0639 187.113 32.1629C187.185 32.2529 187.27 32.3205 187.369 32.3655C187.468 32.4105 187.576 32.4375 187.693 32.4465C187.819 32.4555 187.963 32.46 188.125 32.46H188.611C188.692 32.46 188.755 32.469 188.8 32.487C188.845 32.487 188.895 32.5185 188.949 32.5815C189.012 32.6445 189.043 32.6985 189.043 32.7435C189.043 32.8875 188.962 32.964 188.8 32.973C188.782 32.991 188.719 33 188.611 33H187.842C187.581 33 187.279 32.9865 186.937 32.9595C186.595 32.9235 186.253 32.9055 185.911 32.9055C185.353 32.9055 184.813 32.9235 184.291 32.9595C183.769 32.9865 183.306 33 182.9 33C182.855 33 182.806 32.991 182.752 32.973C182.707 32.955 182.684 32.919 182.684 32.865C182.684 32.811 182.707 32.757 182.752 32.703C182.797 32.649 182.851 32.5995 182.914 32.5545C182.977 32.5005 183.044 32.46 183.117 32.433C183.198 32.406 183.27 32.3925 183.333 32.3925C183.423 32.3925 183.513 32.397 183.603 32.406C183.693 32.415 183.792 32.4195 183.9 32.4195C184.188 32.4195 184.422 32.388 184.602 32.325C184.755 32.2709 184.831 32.1629 184.831 32.0009C184.831 31.9829 184.827 31.9604 184.818 31.9334C184.809 31.9064 184.8 31.8659 184.791 31.8119C184.755 31.7309 184.696 31.5824 184.615 31.3664C184.534 31.1414 184.449 30.8983 184.359 30.6373C184.269 30.3763 184.179 30.1243 184.089 29.8813C184.008 29.6383 183.945 29.4492 183.9 29.3142C183.864 29.2332 183.823 29.1567 183.778 29.0847C183.742 29.0037 183.675 28.9632 183.576 28.9632H179.782C179.557 28.9632 179.413 29.0712 179.35 29.2872L178.81 31.2449C178.792 31.3079 178.778 31.3619 178.769 31.4069C178.76 31.4519 178.756 31.5149 178.756 31.5959C178.756 31.7399 178.765 31.8569 178.783 31.9469C178.81 32.0279 178.846 32.0954 178.891 32.1494C178.945 32.2034 179.012 32.2439 179.093 32.2709C179.183 32.2889 179.296 32.3069 179.431 32.325C179.476 32.325 179.548 32.334 179.647 32.352C179.755 32.361 179.867 32.3745 179.984 32.3925C180.101 32.4105 180.209 32.4285 180.308 32.4465C180.416 32.4555 180.493 32.46 180.538 32.46C180.583 32.478 180.646 32.523 180.727 32.595C180.817 32.658 180.862 32.73 180.862 32.811C180.862 32.856 180.844 32.901 180.808 32.946C180.772 32.982 180.704 33 180.605 33H180.187C180.043 33 179.845 32.9955 179.593 32.9865C179.35 32.9775 179.102 32.973 178.85 32.973C178.607 32.973 178.315 32.9775 177.973 32.9865C177.631 32.9955 177.28 33 176.92 33C176.875 33 176.785 32.9955 176.65 32.9865C176.515 32.9685 176.375 32.946 176.231 32.919C176.096 32.883 175.974 32.8425 175.866 32.7975C175.758 32.7435 175.704 32.685 175.704 32.622ZM179.876 27.7616C179.867 27.7796 179.863 27.8291 179.863 27.9101V27.9776C179.863 28.0766 179.89 28.1622 179.944 28.2342C180.007 28.2972 180.088 28.3287 180.187 28.3287C180.736 28.3287 181.253 28.3512 181.739 28.3962C182.234 28.4322 182.711 28.4502 183.171 28.4502C183.27 28.4502 183.346 28.4232 183.4 28.3692C183.454 28.3062 183.481 28.2477 183.481 28.1937V28.0451C183.481 28.0271 183.477 28.0091 183.468 27.9911C183.45 27.9641 183.436 27.9191 183.427 27.8561L181.982 23.7518C181.91 23.5628 181.825 23.4683 181.726 23.4683C181.681 23.4683 181.631 23.4863 181.577 23.5223C181.523 23.5583 181.487 23.5943 181.469 23.6303L179.876 27.7616ZM191.865 31.4879V21.3892C191.865 21.2992 191.856 21.2001 191.838 21.0921C191.829 20.9841 191.807 20.8806 191.771 20.7816C191.744 20.6826 191.699 20.5971 191.636 20.5251C191.573 20.4441 191.492 20.3901 191.393 20.3631C191.285 20.3361 191.159 20.3136 191.015 20.2956C190.88 20.2776 190.74 20.2641 190.596 20.2551C190.461 20.2371 190.331 20.2191 190.205 20.2011C190.079 20.1831 189.979 20.1606 189.907 20.1336C189.808 20.1066 189.759 20.0436 189.759 19.9446C189.759 19.8185 189.822 19.7555 189.948 19.7555H190.515C190.83 19.7555 191.15 19.778 191.474 19.823C191.798 19.859 192.131 19.8771 192.473 19.8771C193.067 19.8771 193.611 19.8545 194.106 19.8095C194.61 19.7555 195.119 19.7285 195.632 19.7285C195.821 19.7285 196.046 19.733 196.307 19.742C196.568 19.751 196.829 19.7645 197.09 19.7825C197.351 19.7915 197.594 19.805 197.819 19.823C198.053 19.841 198.224 19.859 198.332 19.8771C198.8 19.9311 199.219 20.0571 199.588 20.2551C199.957 20.4531 200.267 20.7096 200.519 21.0246C200.78 21.3397 200.974 21.7042 201.1 22.1182C201.235 22.5232 201.302 22.9598 201.302 23.4278C201.302 23.8238 201.235 24.1704 201.1 24.4674C200.965 24.7554 200.78 25.0074 200.546 25.2234C200.321 25.4395 200.051 25.6195 199.736 25.7635C199.421 25.9075 199.088 26.029 198.737 26.128C198.674 26.146 198.643 26.1865 198.643 26.2495C198.643 26.2855 198.661 26.317 198.697 26.344C198.742 26.371 198.787 26.3935 198.832 26.4115C199.327 26.6005 199.732 26.7896 200.047 26.9786C200.362 27.1676 200.654 27.4286 200.924 27.7616C201.104 27.9866 201.244 28.2432 201.343 28.5312C201.451 28.8102 201.505 29.1072 201.505 29.4222C201.505 29.8363 201.437 30.2548 201.302 30.6778C201.167 31.0919 200.965 31.4699 200.695 31.8119C200.326 32.2799 199.903 32.5995 199.426 32.7705C198.958 32.9415 198.44 33.027 197.873 33.027C197.648 33.027 197.392 33.0225 197.104 33.0135C196.815 33.0045 196.523 33 196.226 33H194.754H192.5H189.948C189.732 33 189.624 32.9145 189.624 32.7435C189.624 32.5815 189.732 32.4645 189.948 32.3925C190.218 32.3295 190.475 32.2889 190.718 32.2709C190.961 32.2529 191.204 32.2214 191.447 32.1764C191.636 32.1404 191.753 32.0504 191.798 31.9064C191.843 31.7534 191.865 31.6139 191.865 31.4879ZM194.079 26.668V32.0009C194.079 32.1359 194.147 32.2529 194.282 32.352C194.417 32.442 194.552 32.487 194.687 32.487H195.416C195.839 32.487 196.203 32.4735 196.509 32.4465C196.815 32.4105 197.086 32.3475 197.32 32.2574C197.554 32.1584 197.761 32.0324 197.941 31.8794C198.13 31.7174 198.314 31.5059 198.494 31.2449C198.764 30.8848 198.926 30.5653 198.98 30.2863C199.034 29.9983 199.061 29.7103 199.061 29.4222C199.061 29.2782 199.052 29.1252 199.034 28.9632C199.016 28.8012 198.989 28.6437 198.953 28.4907C198.926 28.3377 198.89 28.1982 198.845 28.0721C198.809 27.9371 198.764 27.8201 198.71 27.7211C198.476 27.3521 198.229 27.0641 197.968 26.8571C197.707 26.65 197.432 26.497 197.144 26.398C196.865 26.29 196.581 26.2225 196.293 26.1955C196.005 26.1685 195.722 26.155 195.443 26.155H194.43C194.196 26.155 194.079 26.326 194.079 26.668ZM194.079 25.696C194.079 25.813 194.183 25.8715 194.39 25.8715C194.507 25.8715 194.673 25.867 194.889 25.858C195.114 25.849 195.344 25.84 195.578 25.831C195.821 25.813 196.055 25.795 196.28 25.777C196.514 25.75 196.698 25.723 196.833 25.696C197.158 25.606 197.428 25.4755 197.644 25.3044C197.869 25.1334 198.049 24.9309 198.184 24.6969C198.319 24.4629 198.413 24.2064 198.467 23.9273C198.521 23.6393 198.548 23.3333 198.548 23.0093C198.548 22.5682 198.467 22.1722 198.305 21.8212C198.152 21.4702 197.927 21.1731 197.63 20.9301C197.342 20.6871 196.996 20.5026 196.59 20.3766C196.185 20.2416 195.74 20.1741 195.254 20.1741H194.849C194.633 20.1741 194.448 20.2101 194.295 20.2821C194.151 20.3451 194.079 20.4666 194.079 20.6466V25.696ZM203.922 26.641C203.922 26.11 203.971 25.6285 204.07 25.1964C204.169 24.7554 204.318 24.3459 204.516 23.9678C204.714 23.5898 204.957 23.2343 205.245 22.9013C205.542 22.5592 205.879 22.2262 206.257 21.9022C206.554 21.6502 206.874 21.4432 207.216 21.2812C207.558 21.1191 207.909 20.9931 208.269 20.9031C208.638 20.8041 209.016 20.7366 209.403 20.7006C209.79 20.6646 210.172 20.6466 210.55 20.6466C210.875 20.6466 211.217 20.6961 211.577 20.7951C211.946 20.8941 212.301 21.0246 212.643 21.1866C212.985 21.3397 213.3 21.5107 213.588 21.6997C213.876 21.8797 214.115 22.0552 214.304 22.2262C214.961 22.8473 215.469 23.5223 215.829 24.2514C216.189 24.9714 216.369 25.7635 216.369 26.6275C216.369 27.0956 216.333 27.5276 216.261 27.9236C216.198 28.3107 216.099 28.6752 215.964 29.0172C215.838 29.3592 215.676 29.6833 215.478 29.9893C215.289 30.2953 215.069 30.5968 214.817 30.8938C214.583 31.1549 214.304 31.4114 213.98 31.6634C213.665 31.9154 213.314 32.1404 212.927 32.3385C212.54 32.5365 212.121 32.6985 211.671 32.8245C211.23 32.9415 210.771 33 210.294 33C209.475 33 208.719 32.892 208.026 32.676C207.342 32.451 206.703 32.0594 206.109 31.5014C204.651 30.2323 203.922 28.6122 203.922 26.641ZM210.172 21.2271C209.767 21.2271 209.421 21.2722 209.133 21.3622C208.854 21.4432 208.602 21.5647 208.377 21.7267C208.161 21.8797 207.963 22.0687 207.783 22.2937C207.603 22.5187 207.418 22.7708 207.229 23.0498C206.887 23.5808 206.662 24.1479 206.554 24.7509C206.446 25.3449 206.392 25.948 206.392 26.56C206.392 27.2621 206.46 27.9641 206.595 28.6662C206.739 29.3592 207.013 30.0343 207.418 30.6913C207.526 30.8803 207.679 31.0784 207.877 31.2854C208.075 31.4834 208.291 31.6679 208.525 31.8389C208.759 32.0009 208.998 32.1404 209.241 32.2574C209.493 32.3655 209.727 32.4195 209.943 32.4195C210.366 32.4195 210.735 32.3475 211.05 32.2034C211.374 32.0594 211.662 31.8704 211.914 31.6364C212.166 31.3934 212.387 31.1189 212.576 30.8128C212.774 30.4978 212.963 30.1738 213.143 29.8408C213.368 29.3997 213.53 28.9272 213.629 28.4232C213.737 27.9101 213.791 27.3566 213.791 26.7625C213.791 26.3395 213.759 25.9435 213.696 25.5745C213.642 25.2054 213.552 24.8499 213.426 24.5079C213.309 24.1659 213.161 23.8328 212.981 23.5088C212.801 23.1758 212.589 22.8383 212.346 22.4962C212.103 22.1272 211.793 21.8257 211.415 21.5917C211.046 21.3487 210.631 21.2271 210.172 21.2271ZM222.269 20.8491C222.269 20.8851 222.274 20.9751 222.283 21.1191C222.292 21.2632 222.301 21.4162 222.31 21.5782C222.328 21.7402 222.341 21.8932 222.35 22.0372C222.359 22.1812 222.364 22.2712 222.364 22.3072V25.858C222.364 26.02 222.418 26.128 222.526 26.182C222.544 26.182 222.593 26.1865 222.674 26.1955C222.755 26.2045 222.841 26.2135 222.931 26.2225C223.03 26.2225 223.124 26.227 223.214 26.236C223.313 26.245 223.39 26.2495 223.444 26.2495C223.75 26.2495 224.038 26.2045 224.308 26.1145C224.758 26.0065 225.15 25.885 225.483 25.75C225.816 25.606 226.09 25.417 226.306 25.1829C226.531 24.9489 226.698 24.6519 226.806 24.2919C226.914 23.9318 226.968 23.4728 226.968 22.9148C226.968 22.1767 226.72 21.5602 226.225 21.0651C225.847 20.6781 225.406 20.4171 224.902 20.2821C224.398 20.1471 223.808 20.0796 223.133 20.0796C222.89 20.0796 222.683 20.1426 222.512 20.2686C222.35 20.3946 222.269 20.5881 222.269 20.8491ZM226.333 32.703C226.333 32.559 226.419 32.4645 226.59 32.4195H227.602C227.683 32.4015 227.764 32.3925 227.845 32.3925C227.926 32.3835 227.985 32.361 228.021 32.325C228.066 32.2979 228.088 32.2664 228.088 32.2304C228.088 32.1944 228.066 32.1404 228.021 32.0684C227.4 31.2314 226.774 30.3943 226.144 29.5573C225.523 28.7202 224.889 27.8741 224.24 27.0191C224.204 26.9831 224.159 26.9426 224.105 26.8976C224.06 26.8526 224.02 26.8301 223.984 26.8301L222.62 26.668H222.58C222.436 26.668 222.364 26.7535 222.364 26.9246V31.0559C222.364 31.4069 222.404 31.6769 222.485 31.8659C222.575 32.0459 222.683 32.1764 222.809 32.2574C222.935 32.3295 223.075 32.37 223.228 32.379C223.39 32.388 223.538 32.3925 223.673 32.3925C223.826 32.3925 223.957 32.406 224.065 32.433C224.182 32.46 224.24 32.5635 224.24 32.7435C224.24 32.8515 224.191 32.9235 224.092 32.9595C223.993 32.9865 223.894 33 223.795 33H218.395C218.314 33 218.237 32.9775 218.165 32.9325C218.102 32.8875 218.071 32.8245 218.071 32.7435C218.071 32.6445 218.134 32.559 218.26 32.487C218.35 32.46 218.498 32.442 218.705 32.433C218.921 32.415 219.137 32.397 219.353 32.379C219.569 32.361 219.758 32.334 219.92 32.2979C220.091 32.2529 220.177 32.1854 220.177 32.0954V31.6229C220.177 31.1999 220.172 30.8128 220.163 30.4618C220.154 30.1108 220.145 29.7553 220.136 29.3952C220.136 29.0262 220.132 28.6347 220.123 28.2207C220.114 27.8066 220.109 27.3296 220.109 26.7896V22.4962V20.7816C220.091 20.7456 220.078 20.6916 220.069 20.6196C220.069 20.5386 220.051 20.4756 220.015 20.4306C219.997 20.4126 219.974 20.3991 219.947 20.3901C219.929 20.3811 219.911 20.3721 219.893 20.3631C219.866 20.3541 219.848 20.3451 219.839 20.3361H218.584C218.485 20.3361 218.381 20.3136 218.273 20.2686C218.174 20.2236 218.107 20.1606 218.071 20.0796C218.062 20.0706 218.057 20.0571 218.057 20.0391C218.048 20.0301 218.044 20.0121 218.044 19.9851C218.044 19.9311 218.057 19.8681 218.084 19.796C218.12 19.724 218.179 19.688 218.26 19.688H225.078C225.699 19.688 226.279 19.7555 226.819 19.8906C227.368 20.0166 227.845 20.2236 228.25 20.5116C228.655 20.7996 228.975 21.1776 229.209 21.6457C229.443 22.1047 229.56 22.6673 229.56 23.3333C229.56 23.7743 229.528 24.1389 229.465 24.4269C229.402 24.7059 229.303 24.9444 229.168 25.1424C229.033 25.3404 228.862 25.516 228.655 25.669C228.448 25.822 228.205 25.993 227.926 26.182C227.872 26.227 227.791 26.272 227.683 26.317C227.584 26.362 227.485 26.407 227.386 26.452C227.287 26.488 227.202 26.5285 227.13 26.5735C227.058 26.6185 227.022 26.668 227.022 26.722C227.022 26.767 227.085 26.8886 227.211 27.0866C227.346 27.2756 227.508 27.5051 227.697 27.7751C227.895 28.0451 228.111 28.3332 228.345 28.6392C228.588 28.9362 228.813 29.2197 229.02 29.4897C229.236 29.7598 229.42 29.9938 229.573 30.1918C229.735 30.3808 229.839 30.4978 229.884 30.5428C230.127 30.7858 230.37 31.0154 230.613 31.2314C230.865 31.4384 231.126 31.6274 231.396 31.7984C231.675 31.9694 231.968 32.1179 232.274 32.2439C232.58 32.361 232.908 32.442 233.259 32.487C233.331 32.613 233.367 32.721 233.367 32.811C233.367 32.892 233.349 32.946 233.313 32.973C233.286 32.991 233.21 33 233.084 33H227.926H227.13C227.103 33 227.044 33 226.954 33C226.873 32.991 226.783 32.9775 226.684 32.9595C226.594 32.9415 226.513 32.9145 226.441 32.8785C226.369 32.8335 226.333 32.775 226.333 32.703Z" fill="black"/>
</svg>
